SplineFontDB: 3.2
FontName: ComputerVision
FullName: ComputerVision
FamilyName: ComputerVision
Weight: Regular
Copyright: Copyright (c) 2023, Simon Thiefes
Version: 001.000
ItalicAngle: 0
UnderlinePosition: -80
UnderlineWidth: 40
Ascent: 692
Descent: 308
InvalidEm: 0
LayerCount: 2
Layer: 0 0 "Hinten" 1
Layer: 1 0 "Vorne" 0
XUID: [1021 694 -516466584 4177015]
FSType: 0
OS2Version: 0
OS2_WeightWidthSlopeOnly: 0
OS2_UseTypoMetrics: 1
CreationTime: 1678365446
ModificationTime: 1696581646
PfmFamily: 17
TTFWeight: 400
TTFWidth: 5
LineGap: 72
VLineGap: 0
OS2TypoAscent: 0
OS2TypoAOffset: 1
OS2TypoDescent: 0
OS2TypoDOffset: 1
OS2TypoLinegap: 72
OS2WinAscent: 0
OS2WinAOffset: 1
OS2WinDescent: 0
OS2WinDOffset: 1
HheadAscent: 0
HheadAOffset: 1
HheadDescent: 0
HheadDOffset: 1
OS2Vendor: 'PfEd'
Lookup: 4 0 1 "liga" { "liga-1"  } ['liga' ('latn' <'dflt' > ) ]
MarkAttachClasses: 1
DEI: 91125
LangName: 1033
Encoding: Custom
UnicodeInterp: none
NameList: AGL For New Fonts
DisplaySize: -48
AntiAlias: 1
FitToEm: 0
BeginPrivate: 0
EndPrivate
BeginChars: 354 35

StartChar: glyph0
Encoding: 319 92 0
Width: 525
VWidth: 0
Flags: HW
LayerCount: 2
Fore
SplineSet
55.04296875 380.502929688 m 2
 44 382.080078125 39.1845703125 373.643554688 50.220703125 372.067382812 c 0
 419.817382812 319.267578125 419.817382812 319.267578125 421.052734375 319.267578125 c 0
 431.111328125 319.267578125 433.116210938 326.4921875 423.463867188 327.87109375 c 2
 55.04296875 380.502929688 l 2
165.745117188 115.083984375 m 2
 161.634765625 119.194335938 149.122070312 117.712890625 149.122070312 113.126953125 c 0
 149.122070312 112.423828125 149.454101562 111.758789062 150.04296875 111.169921875 c 2
 465.833007812 -204.619140625 l 2
 469.944335938 -208.73046875 482.456054688 -207.248046875 482.456054688 -202.662109375 c 0
 482.456054688 -201.958984375 482.125 -201.294921875 481.53515625 -200.705078125 c 2
 165.745117188 115.083984375 l 2
EndSplineSet
EndChar

StartChar: if
Encoding: 320 -1 1
Width: 314
VWidth: 0
Flags: HW
LayerCount: 2
Fore
SplineSet
6.4853515625 -131.423828125 m 2
 -3.7841796875 -141.693359375 -3.7841796875 -158.369140625 6.4853515625 -168.639648438 c 0
 16.755859375 -178.91015625 33.431640625 -178.91015625 43.7021484375 -168.639648438 c 2
 148.96484375 -63.376953125 l 2
 154.099609375 -58.2412109375 156.666992188 -51.5048828125 156.666992188 -44.7685546875 c 2
 156.666992188 309.560546875 l 1
 305.001953125 408.450195312 305.001953125 408.450195312 306.859375 410.307617188 c 0
 317.129882812 420.578125 317.129882812 437.25390625 306.859375 447.524414062 c 0
 297.84375 456.540039062 283.890625 457.641601562 273.668945312 450.826171875 c 0
 113.606445312 344.119140625 113.606445312 344.119140625 111.749023438 342.260742188 c 0
 106.61328125 337.125976562 104.045898438 330.389648438 104.045898438 323.653320312 c 2
 104.045898438 -33.86328125 l 1
 6.4853515625 -131.423828125 l 2
EndSplineSet
Ligature2: "liga-1" i f
EndChar

StartChar: glyph2
Encoding: 321 124 2
Width: 368
VWidth: 0
Flags: HW
LayerCount: 2
Fore
SplineSet
102.555664062 -148.374023438 m 2
 101.774414062 -151.23828125 103.18359375 -154.41796875 105.263671875 -154.41796875 c 0
 106.486328125 -154.41796875 107.53515625 -153.2890625 107.970703125 -151.689453125 c 0
 266.08203125 428.051757812 266.08203125 428.051757812 266.08203125 428.916015625 c 0
 266.08203125 433.678710938 261.653320312 434.984375 260.451171875 430.57421875 c 2
 102.555664062 -148.374023438 l 2
EndSplineSet
EndChar

StartChar: \.alt1
Encoding: 322 -1 3
Width: 316
VWidth: 0
Flags: HW
LayerCount: 2
Fore
SplineSet
288.1171875 104.775390625 m 2
 296.836914062 130.934570312 264.0078125 151.19140625 244.55078125 131.734375 c 0
 241.567382812 128.750976562 239.451171875 125.227539062 238.200195312 121.477539062 c 2
 162.97265625 -104.206054688 l 1
 78.3134765625 276.760742188 l 2
 73.8369140625 296.903320312 48.6748046875 304.280273438 34.0234375 289.62890625 c 0
 27.4208984375 283.026367188 25.0634765625 273.775390625 26.951171875 265.28125 c 2
 132.213867188 -208.403320312 l 2
 137.94921875 -234.211914062 174.495117188 -236.088867188 182.852539062 -211.014648438 c 2
 288.1171875 104.775390625 l 2
EndSplineSet
EndChar

StartChar: glyph4
Encoding: 323 79 4
Width: 470
VWidth: 0
Flags: HW
LayerCount: 2
Fore
SplineSet
328.967773438 219.657226562 m 0
 322.936523438 222.435546875 303.952148438 221.46875 303.952148438 218.389648438 c 0
 303.952148438 217.935546875 304.418945312 217.505859375 305.251953125 217.122070312 c 0
 524.248046875 116.2421875 455.778320312 -156.540039062 288.75 -219.936523438 c 0
 266.237304688 -228.48046875 244.287109375 -232.094726562 225.864257812 -232.094726562 c 0
 215.713867188 -232.094726562 174.448242188 -231.661132812 118.759765625 -201.553710938 c 0
 -5.271484375 -134.497070312 -5.263671875 44.966796875 118.759765625 112.017578125 c 0
 122.293945312 113.927734375 115.953125 116.05078125 106.583984375 116.05078125 c 0
 101.08984375 116.05078125 96.376953125 115.30078125 94.408203125 114.236328125 c 0
 -32.57421875 45.5859375 -32.5791015625 -135.118164062 94.408203125 -203.772460938 c 0
 125.350585938 -220.500976562 169.095703125 -237.942382812 225.864257812 -237.942382812 c 0
 278.888671875 -237.942382812 337.967773438 -222.66015625 389.73828125 -172.8984375 c 0
 496.83203125 -69.9609375 515.430664062 133.763671875 328.967773438 219.657226562 c 0
40.794921875 -150.03125 m 2
 40.794921875 -151.645507812 46.6904296875 -152.955078125 53.9521484375 -152.955078125 c 0
 61.21484375 -152.955078125 67.1103515625 -151.645507812 67.1103515625 -150.03125 c 2
 67.1103515625 271.021484375 l 2
 67.1103515625 272.635742188 61.21484375 273.9453125 53.9521484375 273.9453125 c 0
 46.6904296875 273.9453125 40.794921875 272.635742188 40.794921875 271.021484375 c 2
 40.794921875 -150.03125 l 2
94.5537109375 61.6806640625 m 2
 90.71484375 59.7607421875 97.05859375 57.5712890625 106.583984375 57.5712890625 c 0
 111.948242188 57.5712890625 116.56640625 58.2861328125 118.614257812 59.3095703125 c 2
 329.140625 164.573242188 l 2
 332.979492188 166.493164062 326.635742188 168.682617188 317.110351562 168.682617188 c 0
 311.74609375 168.682617188 307.126953125 167.967773438 305.079101562 166.944335938 c 2
 94.5537109375 61.6806640625 l 2
EndSplineSet
EndChar

StartChar: glyph5
Encoding: 324 169 5
Width: 462
VWidth: 0
Flags: HW
LayerCount: 2
Fore
SplineSet
331.412109375 222.618164062 m 0
 328.08984375 224.14453125 326.693359375 215.685546875 330.01171875 214.16015625 c 0
 549.208984375 113.428710938 465.629882812 -212.505859375 225.543945312 -198.280273438 c 0
 -68.64453125 -180.846679688 -68.64453125 249.205078125 225.543945312 266.637695312 c 0
 228.981445312 266.841796875 228.801757812 275.608398438 225.353515625 275.404296875 c 0
 -75.71484375 257.563476562 -75.71484375 -189.205078125 225.353515625 -207.046875 c 0
 472.84375 -221.7109375 556.051757812 119.384765625 331.412109375 222.618164062 c 0
122.329101562 431.4609375 m 2
 120.32421875 436.139648438 116.043945312 431.037109375 118.043945312 426.37109375 c 2
 275.938476562 57.9501953125 l 2
 277.943359375 53.271484375 282.223632812 58.3740234375 280.223632812 63.0400390625 c 2
 122.329101562 431.4609375 l 2
209.615234375 121.989257812 m 0
 79.19140625 121.989257812 35.2119140625 -27.1298828125 118.954101562 -101.276367188 c 0
 121.989257812 -103.962890625 124.46875 -96.224609375 121.41796875 -93.5244140625 c 0
 41.7099609375 -22.94921875 86.578125 113.217773438 209.615234375 113.217773438 c 0
 342.036132812 113.217773438 406.071289062 -71.0341796875 277.215820312 -145.888671875 c 0
 274.447265625 -147.497070312 275.146484375 -154.41796875 278.081054688 -154.41796875 c 0
 279.140625 -154.41796875 352.677734375 -117.259765625 352.677734375 -29.0380859375 c 0
 352.677734375 48.6181640625 294.169921875 121.989257812 209.615234375 121.989257812 c 0
EndSplineSet
EndChar

StartChar: glyph6
Encoding: 325 47 6
Width: 578
VWidth: 0
Flags: HW
LayerCount: 2
Fore
SplineSet
86.6552734375 -168.638671875 m 0
 98.212890625 -180.1953125 117.452148438 -178.514648438 126.838867188 -165.104492188 c 2
 495.259765625 361.209960938 l 2
 502.443359375 371.471679688 501.454101562 385.73046875 492.29296875 394.892578125 c 0
 480.735351562 406.44921875 461.49609375 404.768554688 452.109375 391.358398438 c 2
 83.6884765625 -134.956054688 l 2
 76.5048828125 -145.21875 77.494140625 -159.477539062 86.6552734375 -168.638671875 c 0
EndSplineSet
EndChar

StartChar: NN
Encoding: 326 -1 7
Width: 619
VWidth: 0
Flags: HW
LayerCount: 2
Fore
SplineSet
85.5205078125 393.97265625 m 2
 70.3076171875 409.186523438 53.7490234375 401.213867188 47.427734375 394.892578125 c 0
 37.458984375 384.922851562 37.166015625 368.91796875 46.55078125 358.595703125 c 0
 573.293945312 -220.8203125 573.293945312 -220.8203125 573.744140625 -221.270507812 c 0
 584.014648438 -231.541015625 600.690429688 -231.541015625 610.959960938 -221.270507812 c 0
 620.744140625 -211.486328125 621.20703125 -195.888671875 612.349609375 -185.553710938 c 0
 295.895507812 183.640625 295.895507812 183.640625 295.170898438 184.365234375 c 0
 288.31640625 191.219726562 278.608398438 193.499023438 269.85546875 191.204101562 c 1
 85.5205078125 393.97265625 l 2
223.930664062 -32.5791015625 m 0
 261.7578125 -32.5791015625 293.053710938 -28.35546875 323.673828125 -13.064453125 c 1
 355.642578125 -45.033203125 l 2
 356.970703125 -46.361328125 368.1953125 -47.400390625 381.827148438 -47.400390625 c 0
 397.348632812 -47.400390625 409.565429688 -46.05859375 408.010742188 -44.50390625 c 2
 355.377929688 8.1279296875 l 2
 354.049804688 9.4560546875 342.825195312 10.4951171875 329.193359375 10.4951171875 c 0
 315.750976562 10.4951171875 304.6484375 9.484375 303.0703125 8.1826171875 c 0
 291.030273438 -1.748046875 262.224609375 -22.158203125 223.930664062 -27.01171875 c 1
 186.344726562 -22.248046875 157.70703125 -2.470703125 144.791992188 8.1826171875 c 0
 15.38671875 114.922851562 34.376953125 268.44921875 124.533203125 363.254882812 c 0
 145.0234375 384.801757812 189.860351562 424.133789062 253.5 436.993164062 c 1
 272.911132812 439.844726562 l 1
 292.25390625 438.38671875 311.08984375 432.53515625 319.760742188 429.516601562 c 0
 349.120117188 419.295898438 379.31640625 401.803710938 408.306640625 375.98828125 c 0
 409.78125 374.674804688 420.935546875 373.65234375 434.45703125 373.65234375 c 0
 450.110351562 373.65234375 462.364257812 375.015625 460.607421875 376.581054688 c 0
 408.012695312 423.416015625 359.231445312 436.79296875 326.80859375 441.62890625 c 0
 314.543945312 443.458984375 297.571289062 445.15234375 273.215820312 445.15234375 c 0
 231.423828125 445.15234375 201.3359375 440.286132812 172.252929688 429.822265625 c 0
 13.9482421875 372.86328125 -81.1748046875 150.836914062 92.544921875 7.5439453125 c 0
 126.313476562 -20.3115234375 161.245117188 -27.42578125 180.73046875 -30.0419921875 c 0
 190.068359375 -31.2958984375 203.961914062 -32.5791015625 223.930664062 -32.5791015625 c 0
EndSplineSet
Ligature2: "liga-1" N N
EndChar

StartChar: \.alt2
Encoding: 327 -1 8
Width: 116
VWidth: 0
Flags: HW
LayerCount: 2
Fore
SplineSet
10.76171875 65.3525390625 m 2
 5.9765625 74.9208984375 -4.96484375 65.1796875 -0.1943359375 55.638671875 c 2
 105.067382812 -154.888671875 l 2
 109.8515625 -164.458007812 120.793945312 -154.715820312 116.0234375 -145.174804688 c 2
 10.76171875 65.3525390625 l 2
EndSplineSet
EndChar

StartChar: glyph9
Encoding: 328 89 9
Width: 789
VWidth: 0
Flags: HW
LayerCount: 2
Fore
SplineSet
244.549804688 -63.376953125 m 0
 256.516601562 -75.34375 276.536132812 -73.025390625 285.485351562 -58.7060546875 c 2
 548.643554688 362.346679688 l 2
 554.9921875 372.50390625 553.751953125 386.064453125 544.924804688 394.892578125 c 0
 532.958007812 406.859375 512.938476562 404.541015625 503.989257812 390.221679688 c 2
 240.830078125 -30.8310546875 l 2
 234.482421875 -40.98828125 235.721679688 -54.548828125 244.549804688 -63.376953125 c 0
289.479492188 60.4951171875 m 2
 289.479492188 37.126953125 317.922851562 25.4130859375 334.397460938 41.8876953125 c 0
 339.533203125 47.0224609375 342.100585938 53.7587890625 342.100585938 60.4951171875 c 2
 342.100585938 165.7578125 l 2
 342.100585938 168.580078125 341.649414062 171.403320312 340.748046875 174.108398438 c 2
 288.116210938 332.00390625 l 2
 281.975585938 350.42578125 258.379882812 356.090820312 244.549804688 342.260742188 c 0
 237.262695312 334.974609375 235.146484375 324.462890625 238.19921875 315.302734375 c 2
 289.479492188 161.463867188 l 1
 289.479492188 60.4951171875 l 2
EndSplineSet
EndChar

StartChar: glyph10
Encoding: 329 90 10
Width: 380
VWidth: 0
Flags: HW
LayerCount: 2
Fore
SplineSet
8.41796875 455.190429688 m 2
 0.62890625 455.190429688 -0.8466796875 435.848632812 -0.8466796875 428.916015625 c 0
 -0.8466796875 414.888671875 2.8193359375 403.41015625 7.431640625 402.641601562 c 2
 283.686523438 356.598632812 l 1
 57.302734375 84.939453125 l 2
 54.0703125 81.060546875 51.783203125 71.572265625 51.783203125 60.4951171875 c 0
 51.783203125 41.8623046875 58.0869140625 29.1845703125 63.80859375 36.05078125 c 2
 326.966796875 351.83984375 l 2
 330.19921875 355.719726562 332.486328125 365.20703125 332.486328125 376.284179688 c 0
 332.486328125 390.311523438 328.819335938 401.790039062 324.20703125 402.559570312 c 2
 8.41796875 455.190429688 l 2
376.345703125 161.37109375 m 2
 380.65234375 161.37109375 380.65234375 170.143554688 376.345703125 170.143554688 c 2
 121.504882812 170.143554688 l 1
 325.962890625 425.715820312 l 2
 329.104492188 429.643554688 324.608398438 436.043945312 321.465820312 432.116210938 c 2
 110.938476562 168.95703125 l 2
 108.76953125 166.24609375 110.225585938 161.37109375 113.1875 161.37109375 c 2
 376.345703125 161.37109375 l 2
113.802734375 64.7607421875 m 2
 110.450195312 66.1015625 109.2265625 57.568359375 112.572265625 56.23046875 c 2
 354.1015625 -40.3818359375 l 1
 323.713867188 -40.3818359375 l 2
 323.038085938 -40.3818359375 322.420898438 -40.80859375 321.955078125 -41.5078125 c 2
 216.690429688 -199.403320312 l 2
 214.903320312 -202.083984375 216.0546875 -207.049804688 218.450195312 -207.049804688 c 0
 219.125976562 -207.049804688 219.743164062 -206.624023438 220.208984375 -205.923828125 c 2
 324.72265625 -49.154296875 l 1
 376.344726562 -49.154296875 l 2
 379.42578125 -49.154296875 379.948242188 -41.6982421875 376.959960938 -40.5029296875 c 2
 113.802734375 64.7607421875 l 2
EndSplineSet
EndChar

StartChar: i?
Encoding: 330 -1 11
Width: 526
VWidth: 0
Flags: HW
LayerCount: 2
Fore
SplineSet
160.037109375 331.290039062 m 2
 158.5546875 341.66796875 155.262695312 336.352539062 155.262695312 323.654296875 c 0
 155.262695312 320.807617188 155.444335938 318.171875 155.751953125 316.018554688 c 2
 208.383789062 -52.404296875 l 2
 208.861328125 -55.74609375 209.643554688 -57.92578125 210.526367188 -57.92578125 c 2
 263.158203125 -57.92578125 l 2
 264.610351562 -57.92578125 265.790039062 -52.0302734375 265.790039062 -44.7685546875 c 0
 265.790039062 -37.505859375 264.610351562 -31.6103515625 263.158203125 -31.6103515625 c 2
 211.880859375 -31.6103515625 l 1
 160.037109375 331.290039062 l 2
476.31640625 271.020507812 m 0
 476.31640625 278.55859375 475.047851562 284.58984375 473.532226562 284.157226562 c 2
 105.110351562 178.893554688 l 2
 104.4453125 178.703125 103.844726562 177.2734375 103.40234375 175.059570312 c 2
 50.771484375 -88.09765625 l 2
 49.119140625 -96.359375 50.3017578125 -110.557617188 52.6318359375 -110.557617188 c 0
 53.3583984375 -110.557617188 54.015625 -109.083984375 54.4921875 -106.702148438 c 2
 106.413085938 152.90625 l 1
 473.836914062 257.884765625 l 2
 475.21875 258.279296875 476.31640625 264.014648438 476.31640625 271.020507812 c 0
EndSplineSet
Ligature2: "liga-1" i ?
EndChar

StartChar: wa
Encoding: 331 -1 12
Width: 579
VWidth: 0
Flags: HW
LayerCount: 2
Fore
SplineSet
104.045898438 -88.7783203125 m 2
 95.607421875 -90.8876953125 97.9931640625 -108.143554688 106.481445312 -106.021484375 c 2
 527.534179688 -0.7578125 l 2
 534.965820312 1.099609375 534.408203125 15.767578125 526.869140625 16.6044921875 c 0
 52.9091796875 69.267578125 52.9091796875 69.267578125 52.6318359375 69.267578125 c 0
 44.3466796875 69.267578125 43.84375 52.6689453125 52.0791015625 51.75390625 c 2
 477.220703125 4.515625 l 1
 104.045898438 -88.7783203125 l 2
477.935546875 268.719726562 m 2
 487.987304688 270.39453125 479.45703125 274.994140625 469.43359375 273.323242188 c 2
 153.643554688 220.69140625 l 2
 143.590820312 219.016601562 152.12109375 214.416992188 162.14453125 216.087890625 c 2
 477.935546875 268.719726562 l 2
250.313476562 8.8173828125 m 2
 246.572265625 3.2060546875 272.272460938 1.3125 276.00390625 6.9091796875 c 0
 381.579101562 165.2734375 381.579101562 165.2734375 381.579101562 165.758789062 c 0
 381.579101562 170.936523438 358.935546875 171.751953125 355.576171875 166.712890625 c 2
 250.313476562 8.8173828125 l 2
EndSplineSet
Ligature2: "liga-1" w a
EndChar

StartChar: glyph13
Encoding: 332 88 13
Width: 471
VWidth: 0
Flags: HW
LayerCount: 2
Fore
SplineSet
393.514648438 53.916015625 m 0
 410.640625 53.916015625 423.186523438 57.9541015625 419.046875 62.09375 c 2
 50.6259765625 430.514648438 l 2
 47.7666015625 433.374023438 37.4130859375 435.495117188 25.09375 435.495117188 c 0
 7.9677734375 435.495117188 -4.578125 431.45703125 -0.4384765625 427.317382812 c 2
 367.982421875 58.896484375 l 2
 370.841796875 56.037109375 381.1953125 53.916015625 393.514648438 53.916015625 c 0
314.436523438 375.623046875 m 2
 315.991210938 379.508789062 303.775390625 382.86328125 288.252929688 382.86328125 c 0
 274.62109375 382.86328125 263.396484375 380.266601562 262.068359375 376.9453125 c 2
 180.208984375 172.30078125 l 1
 166.989257812 171.953125 156.671875 169.154296875 156.671875 165.7578125 c 2
 156.671875 113.126953125 l 2
 156.671875 107.86328125 180.3671875 104.732421875 197.737304688 107.678710938 c 1
 420.241210938 -203.825195312 l 2
 422.439453125 -206.903320312 433.208984375 -209.2421875 446.146484375 -209.2421875 c 0
 462.512695312 -209.2421875 474.93359375 -205.534179688 472.051757812 -201.500976562 c 2
 223.03515625 147.122070312 l 1
 314.436523438 375.623046875 l 2
EndSplineSet
EndChar

StartChar: glyph14
Encoding: 333 65 14
Width: 163
VWidth: 0
Flags: HW
LayerCount: 2
Fore
SplineSet
158.455078125 -47.8984375 m 2
 161.500976562 -49.9296875 165.387695312 -46.7724609375 164.028320312 -43.3740234375 c 2
 58.765625 219.783203125 l 2
 57.4169921875 223.153320312 52.5029296875 222.809570312 51.6259765625 219.302734375 c 2
 11.5654296875 59.0634765625 l 1
 3.779296875 64.2548828125 3.779296875 64.2548828125 2.6416015625 64.2548828125 c 0
 -1.0478515625 64.2548828125 -2.5224609375 59.419921875 0.5595703125 57.365234375 c 2
 9.6298828125 51.318359375 l 1
 -1.1181640625 8.3291015625 -1.1181640625 8.3291015625 -1.1181640625 7.86328125 c 0
 -1.1181640625 3.482421875 5.228515625 2.7099609375 6.2890625 6.9501953125 c 2
 16.2734375 46.888671875 l 1
 158.455078125 -47.8984375 l 2
56.1005859375 206.196289062 m 1
 152.549804688 -34.92578125 l 1
 18.2099609375 54.6337890625 l 1
 56.1005859375 206.196289062 l 1
EndSplineSet
EndChar

StartChar: A.
Encoding: 334 -1 15
Width: 529
VWidth: 0
Flags: HW
LayerCount: 2
Fore
SplineSet
360.131835938 73.302734375 m 0
 360.131835938 107.661132812 368.190429688 158.08203125 451.221679688 152.6015625 c 0
 478.299804688 150.815429688 497.713867188 138.294921875 509.1953125 122.034179688 c 0
 518.75 108.502929688 521.443359375 94.091796875 521.443359375 86.810546875 c 0
 521.443359375 79.529296875 518.75 65.119140625 509.1953125 51.5869140625 c 0
 497.713867188 35.3271484375 478.299804688 22.806640625 451.221679688 21.0185546875 c 0
 449.1796875 20.8837890625 447.534179688 15.041015625 447.534179688 7.86328125 c 0
 447.534179688 0.5146484375 449.258789062 -5.4306640625 451.366210938 -5.2919921875 c 0
 484.54296875 -3.1025390625 506.918945312 14.10546875 518.900390625 38.9111328125 c 0
 541.143554688 84.962890625 530.377929688 173.69921875 451.366210938 178.913085938 c 0
 380.659179688 183.580078125 352.61328125 150.22265625 352.61328125 73.302734375 c 0
 352.61328125 21.5771484375 365.713867188 -36.4033203125 365.713867188 -78.9013671875 c 0
 365.713867188 -92.87890625 364.98828125 -120.310546875 345.137695312 -137.247070312 c 0
 274.49609375 -197.51953125 214.904296875 -222.032226562 166.40625 -222.032226562 c 0
 94.5888671875 -222.032226562 47.2548828125 -167.85546875 24.267578125 -99.1533203125 c 0
 -22.341796875 40.146484375 29.58203125 237.758789062 166.40625 237.758789062 c 0
 256.473632812 237.758789062 343.076171875 152.599609375 346.030273438 152.599609375 c 0
 350.423828125 152.599609375 351.1796875 174.909179688 346.921875 178.541992188 c 0
 275.794921875 239.228515625 215.637695312 264.07421875 166.40625 264.07421875 c 0
 93.646484375 264.07421875 44.5947265625 210.227539062 19.3896484375 134.8984375 c 0
 -30.3193359375 -13.6650390625 14.345703125 -248.348632812 166.40625 -248.348632812 c 0
 215.637695312 -248.348632812 275.794921875 -223.502929688 346.921875 -162.81640625 c 0
 356.275390625 -154.8359375 373.232421875 -136.02734375 373.232421875 -78.9013671875 c 0
 373.232421875 -28.0302734375 360.131835938 29.7646484375 360.131835938 73.302734375 c 0
455.053710938 165.7578125 m 2
 455.053710938 173.01953125 453.369140625 178.915039062 451.293945312 178.915039062 c 0
 449.21875 178.915039062 447.534179688 173.01953125 447.534179688 165.7578125 c 2
 447.534179688 -97.400390625 l 2
 447.534179688 -104.662109375 449.21875 -110.557617188 451.293945312 -110.557617188 c 0
 453.369140625 -110.557617188 455.053710938 -104.662109375 455.053710938 -97.400390625 c 2
 455.053710938 165.7578125 l 2
339.711914062 270.287109375 m 0
 358.646484375 244.224609375 339.451171875 218.908203125 339.451171875 218.389648438 c 0
 339.451171875 215.37890625 350.252929688 214.768554688 352.348632812 217.654296875 c 0
 364.10546875 233.8359375 364.102539062 255.578125 352.348632812 271.755859375 c 0
 255.817382812 404.62109375 191.123046875 424.15234375 152.854492188 424.15234375 c 0
 52.4326171875 424.15234375 15.4853515625 281.364257812 15.4853515625 165.7578125 c 0
 15.4853515625 94.572265625 28.919921875 23.4189453125 56.0048828125 -26.0146484375 c 0
 74.84375 -60.3994140625 104.66796875 -92.6357421875 152.854492188 -92.6357421875 c 0
 190.704101562 -92.6357421875 254.284179688 -73.5107421875 348.795898438 54.900390625 c 1
 446.154296875 6.2216796875 l 2
 451.540039062 3.5283203125 461.810546875 6.8173828125 456.43359375 9.505859375 c 2
 351.169921875 62.13671875 l 2
 347.831054688 63.806640625 341.186523438 63.2587890625 339.711914062 61.2294921875 c 0
 296.04296875 1.125 256.774414062 -38.4951171875 222.41796875 -61.5849609375 c 0
 194.64453125 -80.251953125 170.848632812 -87.373046875 152.854492188 -87.373046875 c 0
 77.71875 -87.373046875 28.6435546875 28.5048828125 28.6435546875 165.7578125 c 0
 28.6435546875 236.662109375 42.1201171875 307.599609375 68.8583984375 356.401367188 c 0
 75.58984375 368.686523438 103.852539062 418.889648438 152.854492188 418.889648438 c 0
 170.848632812 418.889648438 194.64453125 411.768554688 222.41796875 393.1015625 c 0
 256.774414062 370.010742188 296.04296875 330.391601562 339.711914062 270.287109375 c 0
EndSplineSet
Ligature2: "liga-1" A .
EndChar

StartChar: QO
Encoding: 335 -1 16
Width: 329
VWidth: 0
Flags: HW
LayerCount: 2
Fore
SplineSet
275.500976562 384.635742188 m 2
 269.360351562 403.057617188 245.764648438 408.72265625 231.934570312 394.893554688 c 0
 224.6484375 387.606445312 222.53125 377.094726562 225.584960938 367.934570312 c 2
 278.216796875 210.038085938 l 2
 284.357421875 191.6171875 307.953125 185.951171875 321.783203125 199.78125 c 0
 329.069335938 207.068359375 331.186523438 217.580078125 328.1328125 226.740234375 c 2
 275.500976562 384.635742188 l 2
132.833007812 194.536132812 m 1
 35.205078125 216.607421875 35.3125 330.224609375 86.45703125 381.369140625 c 0
 109.549804688 404.461914062 143.198242188 417.086914062 190.696289062 403.607421875 c 0
 207.161132812 398.935546875 235.913085938 385.775390625 247.098632812 349.739257812 c 1
 239.202148438 348.704101562 232.640625 344.249023438 228.6328125 338.236328125 c 2
 132.833007812 194.536132812 l 1
49.2412109375 418.584960938 m 0
 -36.26953125 333.075195312 -14.1806640625 158.211914062 142.153320312 139.6328125 c 0
 144.880859375 139.30859375 158.658203125 138.376953125 167.190429688 151.174804688 c 2
 194.59765625 192.286132812 l 1
 198.112304688 191.84375 201.69921875 192.108398438 205.126953125 193.081054688 c 0
 336.549804688 230.375976562 336.572265625 416.923828125 205.126953125 454.224609375 c 0
 140.72265625 472.5 85.45703125 454.80078125 49.2412109375 418.584960938 c 0
EndSplineSet
Ligature2: "liga-1" Q O
EndChar

StartChar: |.alt1
Encoding: 336 -1 17
Width: 261
VWidth: 0
Flags: HW
LayerCount: 2
Fore
SplineSet
209.309570312 165.7578125 m 2
 209.309570312 142.390625 237.752929688 130.67578125 254.227539062 147.150390625 c 0
 259.36328125 152.28515625 261.930664062 159.021484375 261.930664062 165.7578125 c 2
 261.930664062 218.390625 l 2
 261.930664062 222.041992188 261.0078125 232.248046875 251.389648438 239.4609375 c 2
 104.0390625 349.973632812 l 1
 182.98828125 349.973632812 l 2
 206.35546875 349.973632812 218.0703125 378.41796875 201.595703125 394.892578125 c 0
 196.4609375 400.02734375 189.724609375 402.594726562 182.98828125 402.594726562 c 2
 25.09375 402.594726562 l 2
 -0.046875 402.594726562 -10.8037109375 370.30859375 9.32421875 355.212890625 c 2
 209.309570312 205.224609375 l 1
 209.309570312 165.7578125 l 2
155.87890625 317.239257812 m 2
 162.319335938 343.001953125 130.459960938 360.97265625 111.749023438 342.260742188 c 0
 108.256835938 338.76953125 105.952148438 334.537109375 104.834960938 330.067382812 c 2
 52.2041015625 119.541015625 l 2
 45.7626953125 93.77734375 77.623046875 75.806640625 96.333984375 94.5185546875 c 0
 99.826171875 98.009765625 102.130859375 102.2421875 103.248046875 106.711914062 c 2
 155.87890625 317.239257812 l 2
EndSplineSet
EndChar

StartChar: glyph18
Encoding: 337 126 18
Width: 573
VWidth: 0
Flags: HW
LayerCount: 2
Fore
SplineSet
404.337890625 170.013671875 m 0
 331.688476562 242.663085938 209.665039062 208.8671875 182.48828125 280.392578125 c 0
 178.327148438 291.345703125 178.327148438 303.327148438 182.489257812 314.284179688 c 0
 186.056640625 323.674804688 184.060546875 334.703125 176.501953125 342.260742188 c 0
 162.997070312 355.765625 140.028320312 350.737304688 133.298828125 333.022460938 c 0
 124.581054688 310.072265625 124.580078125 284.6015625 133.299804688 261.649414062 c 0
 173.098632812 156.905273438 309.827148438 190.091796875 367.122070312 132.796875 c 0
 385.690429688 114.227539062 395.947265625 88.37890625 394.767578125 61.6640625 c 0
 393.711914062 37.7509765625 422.799804688 25.025390625 439.661132812 41.88671875 c 0
 444.499023438 46.724609375 447.057617188 52.9833984375 447.337890625 59.3251953125 c 0
 449.182617188 101.110351562 433.296875 141.0546875 404.337890625 170.013671875 c 0
EndSplineSet
EndChar

StartChar: glyph19
Encoding: 338 55 19
Width: 714
VWidth: 0
Flags: HW
LayerCount: 2
Fore
SplineSet
210.526367188 424.530273438 m 0
 212.537109375 424.530273438 311.053710938 473.221679688 407.194335938 473.221679688 c 0
 771.3515625 473.221679688 656.240234375 -191.602539062 362.622070312 -191.602539062 c 0
 288.293945312 -191.602539062 201.787109375 -149.208984375 107.896484375 -41.6396484375 c 0
 69.916015625 1.8759765625 69.91796875 66.4853515625 107.896484375 109.998046875 c 0
 111.407226562 114.020507812 106.143554688 120.28125 102.629882812 116.255859375 c 0
 61.6533203125 69.30859375 61.6572265625 -0.9541015625 102.629882812 -47.8974609375 c 0
 407.264648438 -396.915039062 642.551757812 -74.705078125 642.551757812 199.251953125 c 0
 642.551757812 395.423828125 520.021484375 570.283203125 209.197265625 433.01953125 c 0
 205.329101562 431.311523438 206.389648438 424.530273438 210.526367188 424.530273438 c 0
EndSplineSet
EndChar

StartChar: glyph20
Encoding: 339 84 20
Width: 287
VWidth: 0
Flags: HW
LayerCount: 2
Fore
SplineSet
0.2685546875 115.598632812 m 2
 -4.3720703125 112.118164062 1.9599609375 107.864257812 11.88671875 107.864257812 c 0
 16.916015625 107.864257812 21.2900390625 108.995117188 23.5048828125 110.655273438 c 2
 213.631835938 253.25 l 1
 261.953125 59.9658203125 l 2
 262.6171875 57.3095703125 268.229492188 55.2314453125 275.044921875 55.2314453125 c 0
 282.806640625 55.2314453125 288.915039062 57.9150390625 288.137695312 61.0244140625 c 2
 235.505859375 271.55078125 l 2
 234.225585938 276.671875 216.895507812 278.067382812 210.795898438 273.493164062 c 2
 0.2685546875 115.598632812 l 2
235.505859375 59.9658203125 m 1
 235.505859375 67.861328125 210.8515625 67.1455078125 209.321289062 61.0244140625 c 0
 156.624023438 -149.765625 156.624023438 -149.765625 156.624023438 -150.03125 c 0
 156.624023438 -156.607421875 181.2421875 -157.0859375 182.874023438 -150.560546875 c 2
 235.505859375 59.9658203125 l 1
EndSplineSet
EndChar

StartChar: glyph21
Encoding: 340 60 21
Width: 315
VWidth: 0
Flags: HW
LayerCount: 2
Fore
SplineSet
176.502929688 147.150390625 m 0
 189.216796875 159.864257812 185.643554688 181.311523438 169.671875 189.297851562 c 2
 111.487304688 218.389648438 l 1
 274.934570312 300.114257812 l 2
 290.907226562 308.100585938 294.48046875 329.546875 281.765625 342.260742188 c 0
 273.55078125 350.4765625 261.236328125 352.120117188 251.380859375 347.192382812 c 2
 40.85546875 241.928710938 l 2
 21.552734375 232.27734375 21.544921875 204.504882812 40.85546875 194.849609375 c 2
 146.118164062 142.21875 l 2
 155.973632812 137.291015625 168.288085938 138.934570312 176.502929688 147.150390625 c 0
EndSplineSet
EndChar

StartChar: .)
Encoding: 341 -1 22
Width: 457
VWidth: 0
Flags: HW
LayerCount: 2
Fore
SplineSet
157.89453125 -145.645507812 m 0
 157.716796875 -145.645507812 149.81640625 -147.118164062 140.131835938 -147.118164062 c 0
 64.5087890625 -147.118164062 11.8759765625 -63.50390625 54.455078125 4.701171875 c 0
 169.491210938 188.974609375 399.22265625 0.673828125 323.202148438 -137.50390625 c 1
 261.805664062 -198.899414062 l 2
 259.091796875 -201.614257812 261.125 -208.616210938 264.079101562 -206.772460938 c 0
 293.310546875 -188.5234375 313.725585938 -167.234375 326.5625 -144.373046875 c 1
 369.772460938 -101.1640625 l 2
 372.048828125 -98.88671875 371.067382812 -93.013671875 368.420898438 -93.013671875 c 0
 367.692382812 -93.013671875 367.692382812 -93.013671875 335.422851562 -125.283203125 c 1
 389.844726562 21.05078125 165.336914062 194.484375 50.8095703125 11.025390625 c 0
 1.5478515625 -67.884765625 66.5517578125 -169.48828125 158.15625 -154.396484375 c 0
 161.420898438 -153.858398438 161.184570312 -145.645507812 157.89453125 -145.645507812 c 0
159.245117188 380.047851562 m 2
 157.502929688 381.790039062 155.262695312 379.6875 155.262695312 376.284179688 c 0
 155.262695312 374.686523438 155.776367188 373.287109375 156.54296875 372.520507812 c 2
 419.702148438 109.36328125 l 2
 422.647460938 106.416992188 425.366210938 113.928710938 422.404296875 116.890625 c 2
 159.245117188 380.047851562 l 2
209.17578125 -206.426757812 m 2
 212.12109375 -209.373046875 214.83984375 -201.862304688 211.877929688 -198.899414062 c 2
 53.9833984375 -41.0048828125 l 2
 52.2412109375 -39.2626953125 50 -41.365234375 50 -44.7685546875 c 0
 50 -46.3662109375 50.513671875 -47.765625 51.28125 -48.5322265625 c 2
 209.17578125 -206.426757812 l 2
EndSplineSet
Ligature2: "liga-1" . )
EndChar

StartChar: glyph23
Encoding: 342 120 23
Width: 392
VWidth: 0
Flags: HW
LayerCount: 2
Fore
SplineSet
-0.1748046875 -147.399414062 m 2
 -4.8583984375 -152.751953125 5.9052734375 -158.314453125 16.765625 -156.142578125 c 2
 279.923828125 -103.510742188 l 2
 285.244140625 -102.446289062 288.735351562 -99.7294921875 288.137695312 -96.73828125 c 2
 248.08984375 103.499023438 l 1
 392.368164062 268.389648438 l 2
 396.143554688 272.704101562 389.80078125 277.600585938 380.307617188 277.600585938 c 0
 374.916992188 277.600585938 370.278320312 275.975585938 368.24609375 273.653320312 c 2
 242.745117188 130.223632812 l 1
 235.505859375 166.418945312 l 2
 234.841796875 169.740234375 229.229492188 172.336914062 222.413085938 172.336914062 c 0
 214.65234375 172.336914062 208.543945312 168.982421875 209.321289062 165.096679688 c 2
 221.216796875 105.620117188 l 1
 -0.1748046875 -147.399414062 l 2
260.966796875 -93.1279296875 m 1
 36.8134765625 -137.958984375 l 1
 226.561523438 78.8955078125 l 1
 260.966796875 -93.1279296875 l 1
EndSplineSet
EndChar

StartChar: glyph24
Encoding: 343 233 24
Width: 663
VWidth: 0
Flags: HW
LayerCount: 2
Fore
SplineSet
52.2001953125 87.5068359375 m 1
 53.2197265625 111.192382812 59.392578125 251.181640625 259.860351562 244.724609375 c 0
 317.012695312 242.883789062 356.62109375 189.815429688 345.44921875 136.379882812 c 1
 52.2001953125 87.5068359375 l 1
399.999023438 -78.7919921875 m 0
 398.622070312 -80.169921875 393.016601562 -86.744140625 383.750976562 -96.009765625 c 0
 326.952148438 -152.80859375 274.541015625 -168.543945312 229.87109375 -163.263671875 c 0
 143.037109375 -152.999023438 73.294921875 -60.6484375 56.029296875 34.79296875 c 1
 370.331054688 87.1748046875 l 2
 373.201171875 87.6533203125 385.525390625 90.451171875 390.576171875 103.766601562 c 0
 425.326171875 195.366210938 359.587890625 294.161132812 261.567382812 297.318359375 c 0
 -50.5673828125 307.372070312 -53.2490234375 -1.8447265625 93.53125 -148.625976562 c 0
 128.860351562 -183.955078125 173.190429688 -209.553710938 223.650390625 -215.518554688 c 0
 274.548828125 -221.53515625 353.845703125 -209.455078125 438.252929688 -114.911132812 c 0
 447.473632812 -104.583007812 447.127929688 -88.7041015625 437.215820312 -78.7919921875 c 0
 426.9453125 -68.5224609375 410.26953125 -68.5224609375 399.999023438 -78.7919921875 c 0
424.33203125 -175.715820312 m 0
 702.930664062 -113.987304688 718.517578125 191.830078125 567.043945312 343.303710938 c 0
 493.831054688 416.516601562 381.654296875 450.653320312 251.299804688 400.862304688 c 0
 233.6171875 394.107421875 228.616210938 371.166015625 242.106445312 357.67578125 c 0
 249.676757812 350.10546875 260.728515625 348.115234375 270.12890625 351.706054688 c 0
 382.146484375 394.493164062 470.400390625 365.515625 529.827148438 306.087890625 c 0
 649.822265625 186.092773438 652.923828125 -71.1611328125 412.884765625 -124.346679688 c 0
 224.780273438 -166.024414062 95.982421875 59.6064453125 227.336914062 200.451171875 c 0
 236.955078125 210.764648438 236.739257812 226.948242188 226.689453125 236.997070312 c 0
 216.188476562 247.499023438 199.01171875 247.248046875 188.826171875 236.327148438 c 0
 22.564453125 58.0537109375 186.411132812 -228.430664062 424.33203125 -175.715820312 c 0
EndSplineSet
EndChar

StartChar: glyph25
Encoding: 344 123 25
Width: 162
VWidth: 0
Flags: HW
LayerCount: 2
Fore
SplineSet
69.318359375 165.899414062 m 2
 68.7724609375 169.71484375 51.2470703125 169.447265625 51.7939453125 165.6171875 c 2
 104.42578125 -202.803710938 l 2
 104.970703125 -206.620117188 122.497070312 -206.352539062 121.950195312 -202.521484375 c 2
 69.318359375 165.899414062 l 2
55.107421875 168.048828125 m 0
 29.96484375 161.393554688 15.43359375 168.681640625 7.9248046875 168.681640625 c 0
 -0.3203125 168.681640625 -4.009765625 165.18359375 2.4755859375 163.466796875 c 0
 46.4052734375 151.838867188 98.62890625 165.307617188 131.577148438 204.069335938 c 0
 151.161132812 227.111328125 161.58984375 256.395507812 161.58984375 286.052734375 c 0
 161.58984375 318.625976562 149.038085938 351.631835938 121.447265625 377.270507812 c 0
 118.651367188 379.869140625 107.481445312 379.825195312 104.864257812 377.208007812 c 0
 51.7841796875 324.129882812 51.7841796875 324.129882812 51.7841796875 323.653320312 c 0
 51.7841796875 320.37109375 65.7705078125 319.619140625 68.8798828125 322.729492188 c 2
 113.114257812 366.962890625 l 1
 134.091796875 343.52734375 144.045898438 314.625976562 144.045898438 286.052734375 c 0
 144.045898438 256.86328125 133.680664062 228.001953125 114.694335938 205.665039062 c 0
 99.4619140625 187.743164062 78.5341796875 174.250976562 55.107421875 168.048828125 c 0
EndSplineSet
EndChar

StartChar: {
Encoding: 345 -1 26
Width: 285
VWidth: 0
Flags: HW
LayerCount: 2
Fore
SplineSet
235.484375 262.670898438 m 2
 244.204101562 288.830078125 211.375 309.0859375 191.91796875 289.62890625 c 0
 188.934570312 286.645507812 186.817382812 283.122070312 185.567382812 279.372070312 c 2
 132.936523438 121.4765625 l 2
 124.216796875 95.3173828125 157.045898438 75.0615234375 176.502929688 94.5185546875 c 0
 179.486328125 97.501953125 181.602539062 101.025390625 182.853515625 104.775390625 c 2
 235.484375 262.670898438 l 2
48.8720703125 7.86328125 m 2
 48.8720703125 2.9423828125 56.3916015625 2.9423828125 56.3916015625 7.86328125 c 2
 56.3916015625 271.020507812 l 2
 56.3916015625 275.942382812 48.8720703125 275.942382812 48.8720703125 271.020507812 c 2
 48.8720703125 7.86328125 l 2
108.948242188 113.8671875 m 2
 107.986328125 118.678710938 100.608398438 117.225585938 101.576171875 112.38671875 c 2
 154.20703125 -150.771484375 l 2
 154.551757812 -152.493164062 156.072265625 -153.791015625 157.893554688 -153.791015625 c 2
 210.52734375 -153.791015625 l 2
 215.448242188 -153.791015625 215.448242188 -146.272460938 210.52734375 -146.272460938 c 2
 160.9765625 -146.272460938 l 1
 108.948242188 113.8671875 l 2
EndSplineSet
EndChar

StartChar: glyph27
Encoding: 346 78 27
Width: 526
VWidth: 0
Flags: HW
LayerCount: 2
Fore
SplineSet
178.96484375 23.6337890625 m 2
 169.337890625 36.46875 150.586914062 37.7724609375 139.286132812 26.4716796875 c 0
 129.915039062 17.1015625 129.094726562 2.3984375 136.823242188 -7.90625 c 0
 272.443359375 -188.732421875 295.293945312 -219.3828125 297.181640625 -221.270507812 c 0
 307.452148438 -231.541015625 324.127929688 -231.541015625 334.397460938 -221.270507812 c 0
 343.768554688 -211.900390625 344.588867188 -197.197265625 336.860351562 -186.892578125 c 2
 178.96484375 23.6337890625 l 2
408.337890625 -150.786132812 m 2
 412.766601562 -154.4765625 438.213867188 -152.981445312 433.767578125 -149.27734375 c 2
 117.977539062 113.880859375 l 2
 113.548828125 117.572265625 88.1015625 116.077148438 92.546875 112.373046875 c 2
 408.337890625 -150.786132812 l 2
210.526367188 312.739257812 m 0
 149.030273438 312.739257812 99.5224609375 267.721679688 99.5224609375 200.100585938 c 0
 99.5224609375 80.25390625 276.375976562 43.640625 320.024414062 164.899414062 c 0
 321.521484375 169.05859375 313.049804688 170.770507812 311.5546875 166.616210938 c 0
 270.455078125 52.4365234375 108.293945312 88.1708984375 108.293945312 200.100585938 c 0
 108.293945312 263.924804688 153.774414062 306.16015625 210.526367188 306.16015625 c 0
 256.002929688 306.16015625 302.766601562 277.586914062 311.4296875 218.030273438 c 0
 312.049804688 213.762695312 320.7734375 214.45703125 320.149414062 218.75 c 0
 311.15234375 280.60546875 261.483398438 312.739257812 210.526367188 312.739257812 c 0
EndSplineSet
EndChar

StartChar: \.alt3
Encoding: 347 -1 28
Width: 220
VWidth: 0
Flags: HW
LayerCount: 2
Fore
SplineSet
2.6416015625 -93.013671875 m 2
 -1.1865234375 -93.013671875 -1.1865234375 -101.786132812 2.6416015625 -101.786132812 c 2
 107.904296875 -101.786132812 l 2
 110.3046875 -101.786132812 111.682617188 -97.6484375 110.245117188 -94.7724609375 c 2
 57.9677734375 9.783203125 l 1
 5.478515625 324.719726562 l 2
 4.654296875 329.666015625 -0.2822265625 328.765625 -0.2822265625 323.654296875 c 0
 -0.2822265625 323.110351562 -0.2822265625 323.110351562 52.4365234375 6.7978515625 c 0
 52.6376953125 5.58984375 60.0693359375 -9.037109375 102.056640625 -93.013671875 c 1
 2.6416015625 -93.013671875 l 2
210.306640625 -105.299804688 m 0
 217.35546875 -109.850585938 223.416015625 -96.6845703125 217.110351562 -90.3779296875 c 2
 114.393554688 12.3388671875 l 1
 100.3828125 34.1767578125 54.263671875 109.9375 61.8232421875 217.5625 c 0
 65.6337890625 271.815429688 83.1064453125 324.439453125 112.891601562 370.565429688 c 0
 116.548828125 376.228515625 113.50390625 385.056640625 107.904296875 385.056640625 c 0
 105.911132812 385.056640625 104.124023438 383.872070312 102.916992188 382.002929688 c 0
 77.2109375 342.193359375 47.8388671875 278.267578125 47.8388671875 194.015625 c 0
 47.8388671875 142.662109375 58.83203125 92.8671875 79.16796875 47.564453125 c 1
 59.21484375 67.5166015625 l 2
 52.33984375 74.392578125 44.4248046875 60.3798828125 51.3310546875 53.4736328125 c 2
 105.415039062 -0.6103515625 l 1
 132.280273438 -41.984375 167.786132812 -77.8427734375 210.306640625 -105.299804688 c 0
EndSplineSet
EndChar

StartChar: glyph29
Encoding: 348 52 29
Width: 532
VWidth: 0
Flags: HW
LayerCount: 2
Fore
SplineSet
449.682617188 60.4951171875 m 2
 449.682617188 37.126953125 478.126953125 25.4130859375 494.600585938 41.8876953125 c 0
 499.736328125 47.0224609375 502.303710938 53.7587890625 502.303710938 60.4951171875 c 2
 502.302734375 271.022460938 l 2
 502.302734375 294.390625 473.858398438 306.104492188 457.383789062 289.629882812 c 2
 246.857421875 79.103515625 l 2
 228.145507812 60.3916015625 246.116210938 28.5322265625 271.879882812 34.9736328125 c 2
 449.682617188 79.423828125 l 1
 449.682617188 60.4951171875 l 2
351.25390625 109.067382812 m 1
 449.681640625 207.495117188 l 1
 449.681640625 133.674804688 l 1
 351.25390625 109.067382812 l 1
487.173828125 187.10546875 m 0
 487.173828125 145.298828125 472.232421875 113.874023438 472.232421875 113.126953125 c 0
 472.232421875 110.114257812 478.408203125 109.506835938 479.603515625 112.393554688 c 0
 538.250976562 254.09375 417.374023438 405.244140625 264.563476562 378.83984375 c 0
 -180.881835938 301.869140625 4.044921875 -252.59765625 309.271484375 -252.59765625 c 0
 380.010742188 -252.59765625 456.213867188 -222.745117188 531.64453125 -151.596679688 c 0
 533.475585938 -149.870117188 531.701171875 -147.399414062 528.623046875 -147.399414062 c 2
 318.09765625 -147.399414062 l 2
 313.176757812 -147.399414062 313.176757812 -152.662109375 318.09765625 -152.662109375 c 2
 521.099609375 -152.662109375 l 1
 262.447265625 -390.870117188 6.5673828125 -131.474609375 6.5673828125 99.5634765625 c 0
 6.5673828125 224.40625 80.2880859375 341.575195312 266.369140625 373.729492188 c 0
 386.337890625 394.458984375 487.173828125 298.809570312 487.173828125 187.10546875 c 0
427.076171875 428.509765625 m 2
 427.076171875 432.759765625 420.276367188 432.155273438 419.646484375 429.323242188 c 0
 314.338867188 -44.5634765625 314.338867188 -44.5634765625 314.338867188 -44.7685546875 c 0
 314.338867188 -47.859375 320.758789062 -48.369140625 321.758789062 -45.3681640625 c 0
 479.750976562 428.611328125 479.750976562 428.611328125 479.750976562 428.916015625 c 0
 479.750976562 432.006835938 473.331054688 432.517578125 472.330078125 429.515625 c 2
 337.235351562 24.228515625 l 1
 427.076171875 428.509765625 l 2
EndSplineSet
EndChar

StartChar: 7.alt1
Encoding: 349 -1 30
Width: 374
VWidth: 0
Flags: HW
LayerCount: 2
Fore
SplineSet
209.408203125 -97.400390625 m 0
 209.408203125 -116.3046875 212.18359375 -128.98828125 214.646484375 -121.600585938 c 2
 372.541015625 352.083984375 l 2
 373.881835938 356.106445312 374.822265625 365.432617188 374.822265625 376.284179688 c 0
 374.822265625 390.80859375 373.137695312 402.600585938 371.0625 402.600585938 c 2
 107.904296875 402.600585938 l 2
 105.829101562 402.600585938 104.14453125 390.80859375 104.14453125 376.284179688 c 0
 104.14453125 361.760742188 105.829101562 349.96875 107.904296875 349.96875 c 2
 352.74609375 349.96875 l 1
 211.689453125 -73.19921875 l 2
 210.348632812 -77.22265625 209.408203125 -86.548828125 209.408203125 -97.400390625 c 0
3.6748046875 -19.4609375 m 2
 1.2841796875 -14.6787109375 -1.1181640625 -27.2705078125 -1.1181640625 -44.7685546875 c 0
 -1.1181640625 -56.7841796875 0.03515625 -66.9296875 1.6083984375 -70.0751953125 c 2
 54.240234375 -175.338867188 l 2
 54.640625 -176.140625 56.4521484375 -178.989257812 57.931640625 -168.635742188 c 2
 109.87109375 194.94921875 l 1
 214.201171875 403.608398438 l 2
 215.774414062 406.754882812 216.927734375 416.900390625 216.927734375 428.916015625 c 0
 216.927734375 446.413085938 214.525390625 459.004882812 212.134765625 454.223632812 c 2
 106.87109375 243.696289062 l 2
 106.248046875 242.452148438 105.692382812 240.111328125 105.24609375 236.993164062 c 2
 54.1806640625 -120.471679688 l 1
 3.6748046875 -19.4609375 l 2
EndSplineSet
EndChar

StartChar: glyph31
Encoding: 350 51 31
Width: 396
VWidth: 0
Flags: HW
LayerCount: 2
Fore
SplineSet
320.010742188 -96.8818359375 m 2
 319.333984375 -100.264648438 324.497070312 -101.290039062 325.171875 -97.91796875 c 0
 377.854492188 165.495117188 377.854492188 165.495117188 377.854492188 165.7578125 c 0
 377.854492188 168.895507812 373.255859375 169.34375 372.642578125 166.275390625 c 2
 320.010742188 -96.8818359375 l 2
274.255859375 428.254882812 m 2
 275.407226562 432.479492188 266.809570312 433.7890625 265.661132812 429.578125 c 2
 112.729492188 -131.177734375 l 1
 63.76953125 113.6171875 l 2
 62.978515625 117.575195312 55.046875 117.141601562 55.046875 113.125976562 c 0
 55.046875 112.877929688 55.046875 112.877929688 107.727539062 -150.5234375 c 0
 108.4453125 -154.115234375 115.390625 -154.25390625 116.361328125 -150.694335938 c 2
 274.255859375 428.254882812 l 2
160.310546875 60.4951171875 m 0
 160.310546875 56.220703125 168.989257812 56.169921875 169.08203125 60.4404296875 c 0
 170.756835938 138.368164062 248.709960938 190.982421875 320.565429688 162.83984375 c 0
 343.557617188 153.834960938 362.63671875 136.005859375 370.981445312 112.286132812 c 0
 484.928710938 -211.668945312 7.703125 -177.375 7.703125 31.0859375 c 0
 7.703125 69.5673828125 23.8603515625 114.266601562 63.208984375 164.084960938 c 0
 66.126953125 167.779296875 58.5908203125 171.145507812 55.65625 167.430664062 c 0
 -88.8916015625 -15.576171875 71.3408203125 -134.822265625 217.916015625 -134.822265625 c 0
 332.155273438 -134.822265625 441.169921875 -61.4638671875 379.46484375 113.966796875 c 0
 370.567382812 139.254882812 350.063476562 158.708984375 324.6171875 168.67578125 c 0
 246.66796875 199.204101562 162.094726562 143.513671875 160.310546875 60.4951171875 c 0
EndSplineSet
EndChar

StartChar: ZA
Encoding: 351 -1 32
Width: 419
VWidth: 0
Flags: HW
LayerCount: 2
Fore
SplineSet
201.595703125 447.524414062 m 0
 190.294921875 458.825195312 171.543945312 457.522460938 161.916992188 444.686523438 c 2
 4.0234375 234.16015625 l 2
 -3.705078125 223.85546875 -2.884765625 209.15234375 6.4853515625 199.782226562 c 0
 17.787109375 188.481445312 36.5380859375 189.784179688 46.1650390625 202.620117188 c 2
 204.05859375 413.146484375 l 2
 211.787109375 423.451171875 210.965820312 438.154296875 201.595703125 447.524414062 c 0
412.123046875 447.5234375 m 0
 401.21484375 458.431640625 383.22265625 457.672851562 373.280273438 445.743164062 c 2
 110.124023438 129.954101562 l 2
 101.51171875 119.620117188 102.053710938 104.213867188 111.75 94.5185546875 c 0
 122.658203125 83.6103515625 140.650390625 84.3681640625 150.591796875 96.298828125 c 2
 413.749023438 412.086914062 l 2
 422.360351562 422.421875 421.818359375 437.827148438 412.123046875 447.5234375 c 0
EndSplineSet
Ligature2: "liga-1" Z A
EndChar

StartChar: GD
Encoding: 352 -1 33
Width: 103
VWidth: 0
Flags: HW
LayerCount: 2
Fore
SplineSet
77.724609375 -123.7109375 m 2
 101.092773438 -123.7109375 112.807617188 -95.2666015625 96.3330078125 -78.7919921875 c 0
 91.1982421875 -73.6572265625 84.4609375 -71.08984375 77.724609375 -71.08984375 c 2
 25.0927734375 -71.08984375 l 2
 1.724609375 -71.08984375 -9.9892578125 -99.5341796875 6.4853515625 -116.008789062 c 0
 11.6201171875 -121.143554688 18.3564453125 -123.7109375 25.0927734375 -123.7109375 c 2
 77.724609375 -123.7109375 l 2
EndSplineSet
Ligature2: "liga-1" G D
EndChar

StartChar: "+IBQA_"
Encoding: 353 -1 34
Width: 631
VWidth: 0
Flags: HW
LayerCount: 2
Fore
SplineSet
210.791015625 -90.853515625 m 2
 206.84375 -90.853515625 207.201171875 -103.180664062 210.26171875 -103.946289062 c 0
 420.919921875 -156.610351562 420.919921875 -156.610351562 421.052734375 -156.610351562 c 0
 424.340820312 -156.610351562 424.580078125 -144.301757812 421.317382812 -143.485351562 c 2
 210.791015625 -90.853515625 l 2
EndSplineSet
Ligature2: "liga-1"  — _
EndChar
